<svg height="480pt" viewBox="0 0 480 480.18451" width="480pt" xmlns="http://www.w3.org/2000/svg"><g fill="#9bc9ff"><path d="m472.09375 232.183594c0-26.507813-21.492188-48-48-48h-64c-26.511719 0-48 21.492187-48 48v32l22.664062 8.800781c38.324219 14.894531 80.917969 14.464844 118.933594-1.207031l18.402344-7.59375zm0 0"/><path d="m120.09375 40.183594c0 17.675781-14.328125 32-32 32-17.675781 0-32-14.324219-32-32 0-17.671875 14.324219-32 32-32 17.671875 0 32 14.328125 32 32zm0 0"/><path d="m424.09375 40.183594c0 17.675781-14.328125 32-32 32-17.675781 0-32-14.324219-32-32 0-17.671875 14.324219-32 32-32 17.671875 0 32 14.328125 32 32zm0 0"/><path d="m272.09375 40.183594c0 17.675781-14.328125 32-32 32-17.675781 0-32-14.324219-32-32 0-17.671875 14.324219-32 32-32 17.671875 0 32 14.328125 32 32zm0 0"/><path d="m120.09375 144.183594c0 17.675781-14.328125 32-32 32-17.675781 0-32-14.324219-32-32 0-17.671875 14.324219-32 32-32 17.671875 0 32 14.328125 32 32zm0 0"/><path d="m424.09375 144.183594c0 17.675781-14.328125 32-32 32-17.675781 0-32-14.324219-32-32 0-17.671875 14.324219-32 32-32 17.671875 0 32 14.328125 32 32zm0 0"/><path d="m168.09375 232.183594c0-26.507813-21.492188-48-48-48h-64c-26.511719 0-48 21.492187-48 48v32l22.664062 8.800781c38.324219 14.894531 80.917969 14.464844 118.933594-1.207031l18.402344-7.59375zm0 0"/><path d="m168.09375 128.183594c0-26.507813-21.492188-48-48-48h-64c-26.511719 0-48 21.492187-48 48v32l22.664062 8.800781c38.324219 14.894531 80.917969 14.464844 118.933594-1.207031l18.402344-7.59375zm0 0"/><path d="m272.09375 80.183594h-64c-26.511719 0-48 21.492187-48 48v32l22.664062 8.800781c38.324219 14.894531 80.917969 14.464844 118.933594-1.207031l18.402344-7.59375v-32c0-26.507813-21.492188-48-48-48zm-32 96c-17.675781 0-32-14.324219-32-32 0-17.671875 14.324219-32 32-32 17.671875 0 32 14.328125 32 32 0 17.675781-14.328125 32-32 32zm0 0"/><path d="m472.09375 128.183594c0-26.507813-21.492188-48-48-48h-64c-26.511719 0-48 21.492187-48 48v32l22.664062 8.800781c38.324219 14.894531 80.917969 14.464844 118.933594-1.207031l18.402344-7.59375zm0 0"/></g><path d="m424.09375 72.183594h-8.25c13.898438-10.257813 19.644531-28.277344 14.246094-44.6875-5.402344-16.40625-20.722656-27.496094-37.996094-27.496094-17.277344 0-32.597656 11.089844-37.996094 27.496094-5.402344 16.410156.34375 34.429687 14.242188 44.6875h-8.246094c-17.191406.019531-33.417969 7.941406-44 21.488281-10.582031-13.550781-26.808594-21.476563-44-21.488281h-8.25c13.898438-10.257813 19.644531-28.277344 14.246094-44.6875-5.402344-16.40625-20.722656-27.496094-37.996094-27.496094-17.277344 0-32.597656 11.089844-37.996094 27.496094-5.402344 16.410156.34375 34.429687 14.242188 44.6875h-8.246094c-17.191406.011718-33.421875 7.9375-44 21.488281-10.585938-13.546875-26.8125-21.46875-44-21.488281h-8.25c13.898438-10.257813 19.644531-28.277344 14.246094-44.6875-5.402344-16.40625-20.722656-27.496094-37.996094-27.496094-17.277344 0-32.597656 11.089844-37.996094 27.496094-5.402344 16.410156.34375 34.429687 14.242188 44.6875h-8.246094c-30.914062.039062-55.960938 25.089844-56 56v16h16v-16c.023438-22.078125 17.917969-39.972656 40-40h64c14.804688.011718 28.386719 8.222656 35.269531 21.328125-2.152343 5.992187-3.257812 12.308593-3.269531 18.671875v16h16v-16c.023438-22.078125 17.917969-39.972656 40-40h64c22.078125.027344 39.972656 17.921875 40 40v16h16v-16c-.015625-6.363282-1.121094-12.679688-3.273438-18.671875 6.886719-13.105469 20.464844-21.316407 35.273438-21.328125h64c22.078125.027344 39.972656 17.921875 40 40v16h16v-16c-.042969-30.910156-25.089844-55.960938-56-56zm-32-56c13.253906 0 24 10.746094 24 24s-10.746094 24-24 24c-13.257812 0-24-10.746094-24-24s10.742188-24 24-24zm-152 0c13.253906 0 24 10.746094 24 24s-10.746094 24-24 24c-13.257812 0-24-10.746094-24-24s10.742188-24 24-24zm-152 0c13.253906 0 24 10.746094 24 24s-10.746094 24-24 24c-13.257812 0-24-10.746094-24-24s10.742188-24 24-24zm0 0" fill="#1e81ce"/><path d="m424.09375 176.183594h-8.25c13.898438-10.257813 19.644531-28.277344 14.246094-44.6875-5.402344-16.40625-20.722656-27.496094-37.996094-27.496094-17.277344 0-32.597656 11.089844-37.996094 27.496094-5.402344 16.410156.34375 34.429687 14.242188 44.6875h-8.246094c-17.191406.019531-33.417969 7.941406-44 21.488281-10.582031-13.550781-26.808594-21.476563-44-21.488281h-8.25c13.898438-10.257813 19.644531-28.277344 14.246094-44.6875-5.402344-16.40625-20.722656-27.496094-37.996094-27.496094-17.277344 0-32.597656 11.089844-37.996094 27.496094-5.402344 16.410156.34375 34.429687 14.242188 44.6875h-8.246094c-17.191406.011718-33.421875 7.9375-44 21.488281-10.585938-13.546875-26.8125-21.46875-44-21.488281h-8.25c13.898438-10.257813 19.644531-28.277344 14.246094-44.6875-5.402344-16.40625-20.722656-27.496094-37.996094-27.496094-17.277344 0-32.597656 11.089844-37.996094 27.496094-5.402344 16.410156.34375 34.429687 14.242188 44.6875h-8.246094c-30.929688 0-56 25.074218-56 56v36.945312l20.421875 10.253906.839844.355469c20.035156 7.746094 41.296875 11.855469 62.777343 12.125 23.917969-.476562 47.5625-5.203125 69.824219-13.964843l9.007813-3.296876 9.550781 4.800782.800781.351562c13.8125 5.148438 28.160156 8.722656 42.777344 10.65625v82.460938l-20.265625-20.261719c-.9375-.96875-1.96875-1.84375-3.078125-2.609375-4.015625-2.882812-8.84375-4.417969-13.785156-4.375-6.367188.003906-12.480469 2.492188-17.039063 6.933594-7.207031 7.058594-9.132812 17.910156-4.800781 27.019531 1.140625 2.59375 2.746094 4.960937 4.734375 6.980469l51.871094 51.875c1.503906 1.5 2.347656 3.539062 2.347656 5.664062v36.085938h16v-36.085938c0-6.367187-2.53125-12.476562-7.035156-16.976562l-51.695313-51.738282c-.703125-.714843-1.265625-1.554687-1.664062-2.476562-1.488282-3.015625-.886719-6.640625 1.496094-9.007812 1.511718-1.582032 3.636718-2.421876 5.816406-2.304688 1.6875-.035156 3.335937.511719 4.671875 1.542969.304687.222656.589843.476562.847656.75l20.265625 20.296875c4.574219 4.574218 11.457031 5.945312 17.433594 3.46875 5.976562-2.476563 9.875-8.308594 9.878906-14.78125v-116.6875c0-4.417969 3.582031-8 8-8s8 3.582031 8 8v88c0 4.417968 3.582031 8 8 8s8-3.582032 8-8v-24c-.019531-1.386719.347656-2.753906 1.0625-3.941406 1.269531-2.164063 3.476562-3.613282 5.964844-3.917969 2.488281-.304688 4.976562.570312 6.730468 2.363281 1.433594 1.472656 2.234376 3.445312 2.242188 5.496094v32c0 4.417968 3.582031 8 8 8s8-3.582032 8-8v-24c.003906-.914063.179688-1.820313.519531-2.671875.972657-2.542969 3.164063-4.425781 5.824219-5 2.664062-.578125 5.4375.230469 7.375 2.144531 1.175781 1.152344 1.941406 2.660156 2.175781 4.289062.070313.410157.105469.824219.105469 1.238282v32c0 4.417968 3.582031 8 8 8s8-3.582032 8-8v-16c.011719-3.582032 2.40625-6.722656 5.863281-7.679688l1.128907-.238281c.328124-.066406.667968-.09375 1.007812-.082031 2.15625-.003906 4.222656.886718 5.703125 2.457031 1.484375 1.460937 2.316406 3.460937 2.296875 5.542969v73.375c0 2.125-.84375 4.15625-2.34375 5.65625l-6.632812 6.632812c-4.496094 4.5-7.023438 10.601563-7.023438 16.960938v33.375h16v-33.375c0-2.121094.84375-4.15625 2.34375-5.65625l6.628906-6.632813c4.5-4.5 7.023438-10.597656 7.027344-16.960937v-73.375c-.066406-13.226563-10.773438-23.933594-24-24-1.277344-.007813-2.550781.097656-3.808594.320312l-.761718.152344c-1.480469.292969-2.929688.726562-4.328126 1.296875-1.019531-4.03125-3.125-7.707031-6.085937-10.625-4.460937-4.601563-10.609375-7.183594-17.015625-7.144531-4.121094.019531-8.167969 1.101562-11.746094 3.144531-.894531-1.460937-1.972656-2.804687-3.199218-4-4.46875-4.613281-10.632813-7.195313-17.054688-7.144531-2.738281.054687-5.441406.574218-8 1.542968v-8.414062c14.269531-2.546875 28.277344-6.378906 41.855469-11.457031l9.023437-3.269531 9.542969 4.796874.839844.355469c20.039062 7.746094 41.296875 11.851563 62.777343 12.125 23.914063-.476562 47.558594-5.203125 69.816407-13.964843l22.144531-8.113282v-37.601562c0-30.925782-25.074219-56-56-56zm-32-56c13.253906 0 24 10.746094 24 24s-10.746094 24-24 24c-13.257812 0-24-10.746094-24-24s10.742188-24 24-24zm-152 0c13.253906 0 24 10.746094 24 24s-10.746094 24-24 24c-13.257812 0-24-10.746094-24-24s10.742188-24 24-24zm-152 0c13.253906 0 24 10.746094 24 24s-10.746094 24-24 24c-13.257812 0-24-10.746094-24-24s10.742188-24 24-24zm-60.800781 144.640625-11.199219-5.601563v-27.039062c.023438-22.078125 17.917969-39.972656 40-40h64c14.804688.011718 28.386719 8.222656 35.269531 21.328125-2.152343 5.992187-3.257812 12.308593-3.269531 18.671875v29.3125l-3.625 1.328125c-46.03125 16.753906-78.929688 17.304687-121.175781 2zm273.222656-2.007813c-11.839844 4.421875-24.019531 7.863282-36.421875 10.289063v-16.921875c0-13.253906-10.746094-24-24-24-13.257812 0-24 10.746094-24 24v18.121094c-12.566406-1.867188-24.898438-5.046876-36.800781-9.480469l-11.199219-5.601563v-27.039062c.023438-22.078125 17.917969-39.972656 40-40h64c22.078125.027344 39.972656 17.921875 40 40v26.402344zm163.578125-4.230468-11.625 4.238281c-46.023438 16.753906-78.929688 17.304687-121.207031 2l-3.203125-1.601563v-31.039062c-.011719-6.363282-1.117188-12.679688-3.269532-18.671875 6.890626-13.117188 20.488282-21.328125 35.304688-21.328125h64c22.078125.027344 39.972656 17.921875 40 40zm0 0" fill="#1e81ce"/></svg>