<svg height="480pt" viewBox="0 0 480 480" width="480pt" xmlns="http://www.w3.org/2000/svg"><path d="m72 440.160156v-128.160156h-64v160h64zm0 0" fill="#9bc9ff"/><path d="m88 248h384v-240h-384zm32-160c26.507812 0 48-21.492188 48-48h224c0 26.507812 21.492188 48 48 48v80c-26.507812 0-48 21.492188-48 48h-224c0-26.507812-21.492188-48-48-48zm0 0" fill="#9bc9ff"/><path d="m392 40h-224c0 26.507812-21.492188 48-48 48v80c26.507812 0 48 21.492188 48 48h224c0-26.507812 21.492188-48 48-48v-80c-26.507812 0-48-21.492188-48-48zm0 0" fill="#9bc9ff"/><g fill="#1e81ce"><path d="m433.175781 319.199219c-3.144531-5.507813-7.886719-9.933594-13.601562-12.695313-2.574219-1.28125-5.320313-2.1875-8.148438-2.695312-7.503906-1.460938-15.28125-.167969-21.90625 3.648437l-89.28125 51.519531c-3.621093-9.710937-11.691406-17.09375-21.6875-19.839843l-96.414062-25.777344c-3.371094-.902344-6.847657-1.359375-10.335938-1.359375h-50.871093c-7.238282 0-14.34375 1.964844-20.554688 5.679688l-20.375 12.207031v-25.886719h-80v176h80v-28.070312l23.480469 9.269531c4.675781 1.855469 9.664062 2.804687 14.695312 2.800781h128.71875c7.441407 0 14.734375-2.074219 21.058594-5.992188l153.597656-95.097656c9.890625-5.710937 15.957031-16.289062 15.890625-27.710937-.003906-5.613281-1.472656-11.128907-4.265625-16zm-369.175781 144.800781h-48v-144h48zm349.3125-114.800781-153.785156 95.199219c-3.792969 2.355468-8.167969 3.605468-12.632813 3.601562h-128.71875c-3.011719-.003906-5.996093-.574219-8.800781-1.679688l-29.375-11.601562v-86.183594l28.601562-17.128906c3.722657-2.226562 7.984376-3.40625 12.328126-3.40625h50.871093c2.09375-.007812 4.175781.261719 6.199219.800781l96.398438 25.800781c6.433593 1.753907 11.125 7.285157 11.800781 13.917969-.003907 1.917969-.160157 3.828125-.464844 5.71875-1.859375 6.917969-8.09375 11.753907-15.253906 11.839844-1.191407-.078125-5.894531-1.039063-9.273438-1.804687l-83.117187-22.242188-4.128906 15.457031 83.390624 22.3125c4.230469 1.125 8.550782 1.886719 12.914063 2.277344 14.488281-.015625 27.164063-9.742187 30.933594-23.734375.136719-.488281.136719-1 .242187-1.496094l96.101563-55.519531c3.316406-1.898437 7.207031-2.53125 10.953125-1.785156 1.410156.253906 2.78125.707031 4.0625 1.34375 2.820312 1.351562 5.167968 3.523437 6.730468 6.234375 1.414063 2.457031 2.164063 5.242187 2.175782 8.078125.019531 5.800781-3.097656 11.15625-8.152344 14zm0 0"/><path d="m160 216v8h240v-8c.027344-22.082031 17.917969-39.972656 40-40h8v-96h-8c-22.082031-.027344-39.972656-17.917969-40-40v-8h-240v8c-.027344 22.082031-17.917969 39.972656-40 40h-8v96h8c22.082031.027344 39.972656 17.917969 40 40zm-32-120.566406c24.554688-3.589844 43.84375-22.878906 47.433594-47.433594h209.132812c3.589844 24.554688 22.878906 43.84375 47.433594 47.433594v65.132812c-24.554688 3.589844-43.84375 22.878906-47.433594 47.433594h-209.132812c-3.589844-24.554688-22.878906-43.84375-47.433594-47.433594zm0 0"/><path d="m80 0v256h400v-256zm384 240h-368v-224h368zm0 0"/><path d="m280 168c-13.007812 0-24-7.328125-24-16h-16c0 15.457031 13.769531 28.375 32 31.351562v16.648438h16v-16.648438c18.230469-2.976562 32-15.894531 32-31.351562 0-17.648438-17.945312-32-40-32-13.007812 0-24-7.328125-24-16s10.992188-16 24-16 24 7.328125 24 16h16c0-15.457031-13.769531-28.375-32-31.351562v-16.648438h-16v16.648438c-18.230469 2.976562-32 15.894531-32 31.351562 0 17.648438 17.945312 32 40 32 13.007812 0 24 7.328125 24 16s-10.992188 16-24 16zm0 0"/><path d="m344 120h48v16h-48zm0 0"/><path d="m168 120h48v16h-48zm0 0"/></g></svg>