<svg height="480pt" viewBox="0 0 480 480" width="480pt" xmlns="http://www.w3.org/2000/svg"><path d="m344 8h-304c-17.671875 0-32 14.328125-32 32v208c0 17.671875 14.328125 32 32 32h16v48l56-48h24v-80c0-17.671875 14.328125-32 32-32h160v-80c0-17.671875 14.328125-32 32-32h16v-16c0-17.671875-14.328125-32-32-32zm0 0" fill="#9bc9ff"/><path d="m328 136v192h96v-192zm0 0" fill="#9bc9ff"/><path d="m328 104h96v32h-96zm0 0" fill="#9bc9ff"/><g fill="#1e81ce"><path d="m392 160h16v16h-16zm0 0"/><path d="m392 192h16v112h-16zm0 0"/><path d="m440 160h-8v-72c-.027344-22.082031-17.917969-39.972656-40-40h-8v-8c-.027344-22.082031-17.917969-39.9726562-40-40h-304c-22.082031.0273438-39.9726562 17.917969-40 40v208c.0273438 22.082031 17.917969 39.972656 40 40h8v40c0 3.125 1.820312 5.964844 4.660156 7.269531 2.835938 1.304688 6.175782.835938 8.546875-1.199219l53.753907-46.070312h13.039062v104c.027344 22.082031 17.917969 39.972656 40 40h173.039062l53.753907 46.070312c2.371093 2.035157 5.710937 2.503907 8.546875 1.199219 2.839844-1.304687 4.660156-4.144531 4.660156-7.269531v-40h32c22.082031-.027344 39.972656-17.917969 40-40v-192c-.027344-22.082031-17.917969-39.972656-40-40zm-24 160h-80v-176h80zm0-192h-80v-16h80zm-8 208-32 42.664062-32-42.664062zm8-248v8h-80v-8c0-13.253906 10.746094-24 24-24h32c13.253906 0 24 10.746094 24 24zm-304 184c-1.910156 0-3.757812.683594-5.207031 1.929688l-42.792969 36.679687v-30.609375c0-4.417969-3.582031-8-8-8h-16c-13.253906 0-24-10.746094-24-24v-208c0-13.253906 10.746094-24 24-24h304c13.253906 0 24 10.746094 24 24v8h-8c-22.082031.027344-39.972656 17.917969-40 40v72h-152c-22.082031.027344-39.972656 17.917969-40 40v72zm352 120c0 13.253906-10.746094 24-24 24h-40c-4.417969 0-8 3.582031-8 8v30.609375l-42.792969-36.679687c-1.449219-1.246094-3.296875-1.929688-5.207031-1.929688h-176c-13.253906 0-24-10.746094-24-24v-192c0-13.253906 10.746094-24 24-24h152v152c.015625.972656.210938 1.9375.574219 2.839844.296875.675781.640625 1.332031 1.027343 1.960937l48 64c1.507813 2.011719 3.878907 3.199219 6.398438 3.199219s4.890625-1.1875 6.398438-3.199219l48-64c.386718-.628906.730468-1.285156 1.027343-1.960937.363281-.902344.558594-1.867188.574219-2.839844v-152h8c13.253906 0 24 10.746094 24 24zm0 0"/><path d="m64 64h16v16h-16zm0 0"/><path d="m96 64h176v16h-176zm0 0"/><path d="m64 96h16v16h-16zm0 0"/><path d="m96 96h176v16h-176zm0 0"/><path d="m64 128h16v16h-16zm0 0"/><path d="m96 128h176v16h-176zm0 0"/><path d="m192 224h16v16h-16zm0 0"/><path d="m224 224h80v16h-80zm0 0"/><path d="m192 256h16v16h-16zm0 0"/><path d="m224 256h80v16h-80zm0 0"/><path d="m192 288h16v16h-16zm0 0"/><path d="m224 288h80v16h-80zm0 0"/><path d="m192 320h16v16h-16zm0 0"/><path d="m224 320h80v16h-80zm0 0"/><path d="m192 352h16v16h-16zm0 0"/><path d="m224 352h80v16h-80zm0 0"/></g></svg>